<?xml version="1.0" encoding="utf-8"?>
<!-- Generator: Adobe Illustrator 19.1.1, SVG Export Plug-In . SVG Version: 6.00 Build 0)  -->
<svg version="1.1" id="_x31_0" xmlns="http://www.w3.org/2000/svg" xmlns:xlink="http://www.w3.org/1999/xlink" x="0px" y="0px"
	 viewBox="0 0 512 512" style="enable-background:new 0 0 512 512;" xml:space="preserve">
<style type="text/css">
	.st0{fill:#374149;}
</style>
<g>
	<path class="st0" d="M375.672,261.253c26.878,8.562,55.6-6.32,64.158-33.198c8.558-26.8-6.32-55.518-33.198-64.077
		c-26.8-8.562-55.522,6.398-64.081,33.198C333.993,224.054,348.871,252.773,375.672,261.253z M402.472,179.977
		c0,1.198-0.082,4.558-19.281,14.476c-15.679,8.164-20.48,8.402-22.16,7.843c-0.398-0.082-0.641-0.32-0.878-0.402l-1.199-0.961
		l0.078-2l0.641-2.316c5.199-16.242,22.64-25.202,38.878-20.082l3.602,1.442L402.472,179.977z"/>
	<path class="st0" d="M238.874,250.854c-26.878-8.558-55.596,6.32-64.077,33.198c-8.562,26.801,6.317,55.518,33.198,64.081
		c26.718,8.481,55.597-6.402,64.077-33.202C280.634,288.053,265.674,259.335,238.874,250.854z M194.156,291.814
		c-0.402-0.16-0.641-0.32-0.801-0.402l-1.281-0.961l0.082-2.078l0.641-2.16c5.199-16.32,22.558-25.359,38.796-20.238l3.762,1.52
		l0.238,2c0,1.199-0.078,4.558-19.277,14.48C200.636,292.135,195.836,292.373,194.156,291.814z"/>
	<path class="st0" d="M366.23,291.252c-26.8-8.558-55.596,6.402-64.158,33.198c-8.481,26.882,6.402,55.601,33.202,64.163
		c26.796,8.558,55.596-6.402,64.154-33.202C407.91,328.533,393.03,299.814,366.23,291.252z M383.191,350.293
		c-5.68,17.918-24.878,27.758-42.718,22.078c-17.922-5.679-27.922-24.8-22.16-42.718c5.679-17.839,24.878-27.839,42.718-22.159
		C378.953,313.173,388.87,332.373,383.191,350.293z"/>
	<path class="st0" d="M248.475,220.855c26.718,8.48,55.518-6.402,63.998-33.281c8.558-26.8-6.32-55.596-33.042-64.077
		c-26.956-8.562-55.678,6.398-64.154,33.199C206.714,183.574,221.515,212.297,248.475,220.855z M231.514,161.817
		c5.68-17.84,24.718-27.762,42.718-22.082c17.839,5.679,27.761,24.8,21.999,42.718c-5.598,17.843-24.8,27.843-42.64,22.164
		C235.593,198.933,225.835,179.735,231.514,161.817z"/>
	<path class="st0" d="M504.47,145.337L210.316,51.82c-5.762-1.84-11.922,1.359-13.679,7.038l-34.125,107.225l-3.011,9.41
		c-1.512-0.641-3.11-1.277-4.703-1.836c-1.52-0.562-3.121-1.121-4.801-1.602c-1.282-0.48-2.562-0.801-3.922-1.121
		c-1.359-0.398-2.641-0.718-4.078-1.039c-0.242-0.078-0.562-0.16-0.882-0.16c-1.836-0.481-3.758-0.801-5.68-1.199
		c-2.797-0.481-5.758-0.879-8.797-1.199c-2.082-0.32-4.242-0.562-6.402-0.718c-5.122-0.402-10.481-0.641-16-0.641
		c-47.917,0-81.436,16.32-81.436,39.597v39.601c0,1.359,0.078,2.641,0.317,3.918c-0.879,0.481-1.836,0.883-2.637,1.359
		c-0.882,0.481-1.762,0.961-2.562,1.442c-0.078,0.082-0.238,0.16-0.32,0.16c-0.559,0.321-1.118,0.641-1.598,1.039
		c-0.481,0.32-0.962,0.641-1.52,1.043c-0.16,0.078-0.402,0.16-0.562,0.316c-1.199,0.883-2.398,1.844-3.519,2.801
		c-1.039,0.961-2,1.84-2.879,2.801c-1.121,1.199-2.082,2.398-2.961,3.602c-0.398,0.641-0.801,1.278-1.199,1.918
		c-0.718,1.199-1.359,2.562-1.84,3.84C0.558,272.053,0,274.854,0,277.815v39.518c0,1.282,0.078,2.641,0.32,3.918
		c0,0.161,0,0.402,0.078,0.641c0.16,0.879,0.402,1.84,0.641,2.722c0.16,0.559,0.32,1.118,0.558,1.68c0,0.078,0.082,0.156,0.16,0.32
		c0.242,0.797,0.562,1.68,0.961,2.477c0.398,0.883,0.962,1.762,1.442,2.562c0.078,0.238,0.238,0.481,0.398,0.719
		c0.16,0.242,0.321,0.398,0.481,0.64c0,0,0,0.078,0.078,0.078c0.723,1.043,1.442,2,2.321,3.043c0.082,0.16,0.16,0.238,0.242,0.316
		c0.879,0.961,1.68,1.844,2.641,2.722l0.078,0.078c1.359,1.199,2.718,2.402,4.242,3.602c1.039,0.718,2.161,1.519,3.278,2.238
		c0.16,0.082,0.32,0.242,0.481,0.32c-0.161,0.641-0.398,1.282-0.481,1.922c-0.16,0.641-0.32,1.282-0.32,1.918
		c-0.161,0.961-0.238,2-0.238,3.042v39.519c0,24.878,34.238,42.878,81.439,42.878c47.198,0,81.436-17.999,81.436-42.878v-2.332
		l0.039-0.539l224.038,71.268c5.758,1.762,11.839-1.359,13.679-7.039l93.518-294.154C513.27,153.255,510.15,147.177,504.47,145.337z
		 M180.168,351.149c-0.008-0.02,0-0.035-0.012-0.059c0-0.878-0.082-1.679-0.242-2.476c0-0.242,0-0.481-0.078-0.641l-0.242-1.203
		c-0.238-0.878-0.48-1.758-0.797-2.558c0-0.16-0.082-0.238-0.082-0.32c-0.321-0.879-0.719-1.758-1.282-2.641
		c-0.156-0.481-0.32-0.879-0.637-1.278c-0.48-0.882-1.121-1.839-1.762-2.64c-0.718-0.962-1.519-1.922-2.32-2.883
		c-0.16-0.078-0.238-0.156-0.321-0.316c-0.961-0.962-1.999-2-3.198-2.961c-1.282-1.122-2.719-2.161-4.238-3.199
		c-1.122-0.723-2.321-1.442-3.523-2.161c0.961-2.722,1.441-5.519,1.441-8.48v-33.999l2.879-9.121c0,0,0.082,0,0.082-0.078
		c2.879-1.683,5.52-3.602,7.84-5.602c0.32-0.238,0.558-0.48,0.879-0.718c0.878-0.801,1.679-1.602,2.48-2.402
		c0.398-0.398,0.719-0.797,1.039-1.199c0.16-0.16,0.242-0.238,0.32-0.398c0.801-0.882,1.442-1.762,2.082-2.641
		c0.48-0.558,0.878-1.199,1.199-1.839c0.718-1.199,1.359-2.402,1.918-3.68c0.402-0.882,0.723-1.762,0.961-2.641
		c0.161-0.48,0.321-1.038,0.402-1.519c0.558-2.082,0.797-4.16,0.797-6.32v-23.281l106.08,33.679
		c5.598,1.762,8.718,7.762,6.961,13.358l-34.722,109.201l-28.714-9.125L180.168,351.149z M341.47,131.177l1.004,0.32
		l-34.722,109.119c-1.758,5.519-7.758,8.636-13.277,6.878l-108.721-34.48v-1.441l37.441-117.916L341.47,131.177z M315.911,243.175
		l34.64-109.037l119.197,37.839L431.83,291.174l-109.037-34.64C317.193,254.773,314.154,248.773,315.911,243.175z M19.359,330.693
		c-1.442-1.359-2.641-2.718-3.68-4.16c-0.082-0.082-0.16-0.16-0.16-0.238c-0.402-0.481-0.718-1.043-0.961-1.523
		c-0.481-0.719-0.801-1.52-1.121-2.238c-0.238-0.558-0.399-1.199-0.559-1.762c-0.078-0.238-0.16-0.477-0.16-0.797
		c0-0.082-0.078-0.16-0.078-0.242c-0.16-0.801-0.242-1.598-0.242-2.398v-8.718c1.602,1.438,3.441,2.718,5.359,4
		c0.961,0.637,2,1.277,3.121,1.836c1.039,0.64,2.16,1.203,3.359,1.762c1.359,0.641,2.722,1.281,4.082,1.84
		c2.32,0.961,4.797,1.839,7.437,2.718c0.082,0,0.242,0.082,0.402,0.082c1.199,0.398,2.398,0.801,3.598,1.122
		c0.883,0.238,1.762,0.476,2.722,0.718h0.078c1.442,0.321,2.801,0.719,4.32,0.961c1.442,0.321,2.961,0.641,4.481,0.879
		c1.359,0.238,2.801,0.48,4.238,0.718c0.16,0,0.242,0.082,0.402,0.082c2.398,0.32,4.878,0.641,7.437,0.878
		c0.722,0.082,1.523,0.161,2.321,0.238c1.679,0.164,3.359,0.242,5.042,0.321c3.438,0.242,7.039,0.32,10.637,0.32
		c3.042,0,6-0.078,8.961-0.238c2.242-0.082,4.48-0.238,6.64-0.402c2.16-0.238,4.321-0.398,6.398-0.718
		c0.883-0.078,1.68-0.16,2.562-0.32c1.84-0.238,3.52-0.481,5.282-0.798c0.156,0,0.398-0.082,0.558-0.082
		c0.16,0,0.238-0.082,0.398-0.082c2.082-0.398,4.082-0.797,6.082-1.277c1.359-0.321,2.797-0.641,4.16-1.039
		c0.161,0,0.398-0.082,0.559-0.16c1.359-0.402,2.718-0.801,4.078-1.203c1.844-0.558,3.602-1.199,5.282-1.84
		c1.441-0.558,2.8-1.117,4.082-1.679c0.32-0.161,0.558-0.238,0.801-0.398h0.156c0.402-0.238,0.801-0.402,1.203-0.641
		c1.199-0.558,2.32-1.122,3.359-1.762c1.758-0.958,3.438-2,4.961-3.118c0.559-0.402,1.118-0.801,1.598-1.199
		c0.551-0.367,1.008-0.77,1.465-1.16c0.149-0.09,0.29-0.18,0.458-0.266v8.625c0,0.719-0.082,1.438-0.242,2.078
		c0,0.16,0,0.242-0.078,0.402c0,0.238-0.082,0.558-0.16,0.801c-0.16,0.636-0.402,1.359-0.641,2c-0.16,0.398-0.32,0.797-0.48,1.117
		c0,0.082-0.078,0.082-0.078,0.16c-0.082,0.082-0.082,0.242-0.16,0.321c-0.16,0.238-0.242,0.48-0.402,0.718
		c-0.238,0.481-0.641,0.961-0.879,1.442c-0.078,0.078-0.078,0.16-0.16,0.242c-0.082,0.078-0.16,0.157-0.238,0.317
		c-0.882,1.203-2,2.48-3.281,3.602c-0.481,0.48-1.039,1.039-1.68,1.441c-0.641,0.559-1.281,1.118-2,1.598
		c-1.039,0.8-2.242,1.519-3.519,2.32c-0.082,0-0.082,0.082-0.16,0.082c-1.282,0.719-2.562,1.438-4,2.161
		c-1.519,0.718-3.203,1.437-4.883,2.16c-1.437,0.558-2.878,1.117-4.476,1.598c-0.402,0.16-0.801,0.32-1.203,0.402
		c-1.359,0.476-2.718,0.878-4.16,1.199c-0.797,0.238-1.598,0.398-2.481,0.64c-0.078,0-0.156,0.078-0.238,0.078
		c-0.321,0.082-0.641,0.16-0.962,0.238c-0.398,0.082-0.718,0.164-1.117,0.242c-2.402,0.558-4.882,0.961-7.442,1.359
		c-0.718,0.082-1.359,0.242-2.078,0.32c-4,0.558-8.32,0.961-12.801,1.199c-0.48,0-1.042,0.082-1.519,0.082
		c-2.402,0.078-4.961,0.16-7.523,0.16c-5.438,0-10.558-0.242-15.359-0.722c-2.078-0.161-4.078-0.398-6-0.719
		c-0.641-0.078-1.359-0.16-2-0.238c-1.117-0.16-2.16-0.402-3.199-0.562c-1.121-0.16-2.32-0.398-3.441-0.641
		c-1.278-0.238-2.477-0.48-3.68-0.797c-0.879-0.242-1.84-0.48-2.718-0.64c-1.84-0.563-3.52-1.122-5.199-1.68
		c-1.122-0.32-2.16-0.722-3.199-1.121c-0.641-0.242-1.282-0.481-1.84-0.719c-0.961-0.402-1.922-0.801-2.801-1.203
		c-0.801-0.32-1.602-0.718-2.402-1.199c-1.758-0.878-3.437-1.839-4.957-2.878c-0.961-0.641-1.922-1.282-2.801-2
		C20.961,332.052,20.16,331.333,19.359,330.693z M107.678,239.253c0.16,0.16,0.32,0.32,0.48,0.402c0.078,0.16,0.238,0.32,0.321,0.48
		h0.078v0.078c0.242,0.238,0.402,0.558,0.559,0.801c0.164,0.16,0.297,0.382,0.43,0.59c0.011,0.09,0.011,0.187-0.012,0.297
		c-2.078,0.074-4.09,0.153-6.015,0.153c-2.559,0-5.039-0.078-7.52-0.238c-0.64,0-1.281-0.082-1.922-0.082
		c-2-0.16-3.918-0.32-5.839-0.558c-2.879-0.32-5.758-0.801-8.481-1.282c-2.16-0.48-4.32-0.961-6.398-1.519h-0.16
		c-0.082,0-0.16-0.078-0.238-0.078c-2.16-0.562-4.16-1.203-6.16-1.922c-2.16-0.718-4.16-1.519-6.16-2.32
		c-1.281-0.558-2.641-1.122-3.922-1.758c-0.879-0.481-1.758-0.801-2.641-1.282h-0.078c-0.082,0-0.082-0.082-0.161-0.082
		c-0.242-0.078-0.402-0.238-0.64-0.316c-0.481-0.32-1.039-0.562-1.52-0.883c-1.359-0.718-2.718-1.519-4-2.398
		c-1.762-1.121-3.519-2.242-5.199-3.441c-3.922-2.719-6.242-7.121-6.8-11.84c14.238,13.359,34.238,22.16,62.557,22.961
		c0.481,0,0.961,0.078,1.52,0.16c0.48,0.078,0.961,0.16,1.441,0.32c0.398,0.078,0.801,0.238,1.199,0.321
		c0.082,0.078,0.242,0.078,0.321,0.16c0.64,0.238,1.281,0.477,1.839,0.879c0.161,0.078,0.242,0.078,0.321,0.16
		c0.558,0.398,1.121,0.801,1.679,1.199C106.958,238.534,107.357,238.855,107.678,239.253z M29.757,383.09
		c12.722,11.281,37.999,18.402,69.042,18.402c3.918,0,7.68-0.082,11.359-0.32c1.68-0.082,3.359-0.242,4.957-0.402
		c1.684-0.157,3.282-0.321,4.883-0.477c3.359-0.402,6.558-0.882,9.679-1.442c0.558-0.16,1.199-0.238,1.84-0.32
		c0.641-0.16,1.199-0.238,1.762-0.32c0.238-0.078,0.398-0.161,0.637-0.161c1.602-0.32,3.043-0.718,4.562-1.121
		c1.519-0.316,2.957-0.797,4.32-1.199c1.438-0.398,2.719-0.801,4-1.281c1.118-0.317,2.238-0.719,3.278-1.199
		c1.359-0.481,2.64-1.039,3.922-1.598c1.199-0.563,2.398-1.122,3.519-1.68c1.122-0.562,2.16-1.203,3.122-1.762
		c1.038-0.558,1.999-1.199,2.878-1.84c0.961-0.641,1.84-1.281,2.641-1.922c0.363-0.258,0.726-0.578,1.094-0.883
		c0.199-0.129,0.344-0.258,0.586-0.374v1.82v6.801c0,14.957-25.839,30.479-69.038,30.479c-43.28,0-69.042-15.522-69.042-30.479
		V383.09z M173.278,236.453v8.722c0,0.961-0.082,1.84-0.32,2.801c-0.161,0.797-0.402,1.598-0.723,2.398
		c-0.238,0.64-0.558,1.281-0.957,1.922c0,0.156-0.164,0.32-0.242,0.477c0,0.082-0.078,0.082-0.078,0.16
		c-0.242,0.402-0.562,0.882-0.883,1.281c-0.398,0.641-0.878,1.282-1.438,1.922c0,0-0.082,0.078-0.16,0.16
		c-0.32,0.398-0.641,0.797-1.043,1.199c-0.398,0.398-0.878,0.801-1.277,1.199c-0.082,0.078-0.16,0.16-0.242,0.238
		c-0.637,0.64-1.359,1.203-2.16,1.762c-0.558,0.48-1.118,0.878-1.758,1.281c-1.039,0.719-2.16,1.438-3.359,2.16
		c-2.082,1.118-4.321,2.238-6.723,3.278c-0.48,0.242-0.957,0.402-1.437,0.562c-0.402,0.238-0.883,0.398-1.442,0.558
		c-2.32,0.962-4.879,1.762-7.519,2.481c-1.122,0.32-2.16,0.641-3.199,0.879c-0.16,0.082-0.402,0.082-0.562,0.16
		c-2.958,0.718-6.16,1.281-9.438,1.839c-0.641,0.082-1.203,0.161-1.84,0.242c-4.16,0.637-8.64,1.039-13.441,1.278
		c-0.398,0.082-0.801,0.082-1.199,0.082c-2.481,0.078-4.961,0.161-7.602,0.161c-43.198,0-69.038-15.519-69.038-30.48v-0.722
		c1.442-0.477,2.879-0.879,4.398-1.278c1.282-0.321,2.562-0.641,3.922-0.961c0.078,0,0.078,0.082,0.16,0.082
		c1.52,0.879,3.122,1.68,4.801,2.398c0.16,0.078,0.321,0.16,0.398,0.16c1.762,0.801,3.602,1.598,5.52,2.238
		c2.16,0.801,4.48,1.602,6.961,2.242c1.922,0.558,3.922,1.117,5.999,1.598c1.36,0.32,2.641,0.641,4,0.882
		c2,0.398,4.16,0.801,6.321,1.118c2.718,0.402,5.519,0.801,8.398,1.043c2.883,0.32,5.84,0.476,8.883,0.64
		c3.038,0.157,6.156,0.238,9.277,0.238c2.242,0,4.481,0,6.641-0.082l4.082-0.238c2.078-0.082,4.156-0.238,6.078-0.398
		c0.242,0,0.398-0.082,0.64-0.082c2.161-0.16,4.238-0.398,6.321-0.718c1.918-0.242,3.839-0.481,5.679-0.883
		c0.558-0.078,1.039-0.156,1.519-0.238c0.238-0.078,0.559-0.078,0.801-0.16c0.161,0,0.238-0.078,0.321-0.078
		c1.598-0.321,3.039-0.641,4.558-0.962c0.641-0.16,1.199-0.32,1.762-0.48c1.68-0.398,3.278-0.801,4.797-1.282
		c1.602-0.48,3.121-0.957,4.641-1.437c1.519-0.481,2.961-1.043,4.32-1.602c1.359-0.559,2.641-1.039,3.84-1.68
		c1.281-0.558,2.562-1.199,3.762-1.84c1.199-0.64,2.32-1.281,3.437-2c1.043-0.64,2.082-1.359,3.043-2.078
		c0.95-0.66,1.75-1.379,2.554-2.047L173.278,236.453z M391.351,418.613l-119.037-37.894l-0.082-0.027l34.639-109.198
		c1.84-5.601,7.762-8.64,13.359-6.878l108.596,34.495l0.445,0.145l-37.874,119.201L391.351,418.613z"/>
</g>
</svg>
